HIERARCHY
ROOT Hips
{
	OFFSET -0.001795 -0.223333 0.028219
	CHANNELS 6 Xposition Yposition Zposition Zrotation Yrotation Xrotation 
	JOINT LeftUpLeg
	{
		OFFSET 0.069520 -0.091406 -0.006815
		CHANNELS 3 Zrotation Yrotation Xrotation
		JOINT LeftLeg
		{
			OFFSET 0.034277 -0.375199 -0.004496
			CHANNELS 3 Zrotation Yrotation Xrotation
			JOINT LeftFoot
			{
				OFFSET -0.013596 -0.397961 -0.043693
				CHANNELS 3 Zrotation Yrotation Xrotation
				JOINT LeftToe
				{
					OFFSET 0.026358 -0.055791 0.119288
					CHANNELS 3 Zrotation Yrotation Xrotation
					End Site
					{
						OFFSET 0.000000 0.000000 0.000000
					}
				}
			}
		}
	}
	JOINT RightUpLeg
	{
		OFFSET -0.067670 -0.090522 -0.004320
		CHANNELS 3 Zrotation Yrotation Xrotation
		JOINT RightLeg
		{
			OFFSET -0.038290 -0.382569 -0.008850
			CHANNELS 3 Zrotation Yrotation Xrotation
			JOINT RightFoot
			{
				OFFSET 0.015774 -0.398415 -0.042312
				CHANNELS 3 Zrotation Yrotation Xrotation
				JOINT RightToe
				{
					OFFSET -0.025372 -0.048144 0.123348
					CHANNELS 3 Zrotation Yrotation Xrotation
					End Site
					{
						OFFSET 0.000000 0.000000 0.000000
					}
				}
			}
		}
	}
	JOINT Spine
	{
		OFFSET -0.002533 0.108963 -0.026696
		CHANNELS 3 Zrotation Yrotation Xrotation
		JOINT Spine1
		{
			OFFSET 0.005487 0.135180 0.001092
			CHANNELS 3 Zrotation Yrotation Xrotation
			JOINT Spine2
			{
				OFFSET 0.001457 0.052922 0.025425
				CHANNELS 3 Zrotation Yrotation Xrotation
				JOINT Neck
				{
					OFFSET -0.002778 0.213870 -0.042857
					CHANNELS 3 Zrotation Yrotation Xrotation
					JOINT Head
					{
						OFFSET 0.005152 0.064970 0.051349
						CHANNELS 3 Zrotation Yrotation Xrotation
						End Site
						{
							OFFSET 0.000000 0.000000 0.000000
						}
					}
				}
				JOINT LeftShoulder
				{
					OFFSET 0.078845 0.121749 -0.034090
					CHANNELS 3 Zrotation Yrotation Xrotation
					JOINT LeftArm
					{
						OFFSET 0.090977 0.030469 -0.008868
						CHANNELS 3 Zrotation Yrotation Xrotation
						JOINT LeftForeArm
						{
							OFFSET 0.259612 -0.012772 -0.027456
							CHANNELS 3 Zrotation Yrotation Xrotation
							JOINT LeftHand
							{
								OFFSET 0.249234 0.008986 -0.001171
								CHANNELS 3 Zrotation Yrotation Xrotation
								End Site
								{
									OFFSET 0.000000 0.000000 0.000000
								}
							}
						}
					}
				}
				JOINT RightShoulder
				{
					OFFSET -0.081759 0.118833 -0.038615
					CHANNELS 3 Zrotation Yrotation Xrotation
					JOINT RightArm
					{
						OFFSET -0.096012 0.032551 -0.009143
						CHANNELS 3 Zrotation Yrotation Xrotation
						JOINT RightForeArm
						{
							OFFSET -0.253742 -0.013329 -0.021401
							CHANNELS 3 Zrotation Yrotation Xrotation
							JOINT RightHand
							{
								OFFSET -0.255298 0.007772 -0.005559
								CHANNELS 3 Zrotation Yrotation Xrotation
								End Site
								{
									OFFSET 0.000000 0.000000 0.000000
								}
							}
						}
					}
				}
			}
		}
	}
}
MOTION
Frames: 12
Frame Time: 0.050000
0.000000 0.960874 0.000000 -1.679643 10.124492 0.158537 4.213200 0.094055 6.340450 -3.204937 0.272662 -7.889324 3.494264 11.108733 11.934131 0.000000 0.000000 0.000000 0.791348 -0.300469 2.525346 1.563289 -0.236854 -1.552898 -1.630683 -6.572434 10.913387 0.000000 0.000000 0.000000 -0.533685 -0.154804 4.179281 3.986839 -0.174784 -24.469892 -2.077707 -5.618070 29.791480 1.180052 0.989454 -26.762151 0.000000 0.000000 0.000000 -27.479095 0.987173 -2.709914 -52.642023 -3.835043 -7.115279 -13.865909 -23.083936 4.030761 0.000000 0.000000 0.000000 18.071193 1.953545 0.484044 58.581213 4.337121 -6.438718 9.396088 27.254655 3.563605 0.000000 0.000000 0.000000 
0.000378 0.960068 0.000528 -1.869349 10.176585 0.814636 4.108970 0.081931 5.908047 -2.307531 0.256281 -8.574854 4.271389 12.314493 12.084396 0.000000 0.000000 0.000000 0.363264 -0.193219 1.705329 2.434482 -0.330746 -1.058052 -1.425469 -5.948930 9.882471 0.000000 0.000000 0.000000 -0.051245 -0.132656 3.223218 3.766373 -0.120460 -24.405359 -2.570747 -5.804324 30.073866 1.736454 0.668137 -27.100107 0.000000 0.000000 0.000000 -27.156679 1.916798 -3.225342 -52.888997 -3.691908 -7.233608 -14.257951 -23.319118 4.173168 0.000000 0.000000 0.000000 17.902664 2.011355 0.493515 59.792082 3.953794 -6.730098 8.497460 28.358270 3.536717 0.000000 0.000000 0.000000 
0.000703 0.959590 0.000926 -1.702355 9.492701 1.041452 3.874646 0.106754 5.684768 -2.394412 0.266070 -8.034681 4.461196 12.593148 12.277205 0.000000 0.000000 0.000000 0.381537 -0.185988 1.643364 1.952448 -0.273459 -1.278093 -1.252095 -5.691002 9.979544 0.000000 0.000000 0.000000 0.069953 -0.133457 3.141986 3.824758 -0.131501 -24.724188 -2.624222 -5.671942 30.431028 0.831506 1.152282 -27.368229 0.000000 0.000000 0.000000 -27.280581 1.788549 -3.005948 -52.608217 -3.524885 -7.341253 -14.085810 -23.469470 4.187980 0.000000 0.000000 0.000000 17.495618 2.318411 0.583288 60.049774 4.151556 -6.659677 8.461141 28.324613 3.495717 0.000000 0.000000 0.000000 
0.001047 0.959762 0.001447 -1.937020 9.650750 0.887734 3.811948 0.123400 6.070906 -1.943091 0.257364 -8.279308 5.226970 13.747382 12.374926 0.000000 0.000000 0.000000 0.463178 -0.173411 1.515347 2.318472 -0.311639 -0.922341 -0.747770 -4.664201 10.095650 0.000000 0.000000 0.000000 0.335812 -0.157194 3.418172 4.160196 -0.192102 -25.258404 -2.993055 -5.823677 30.841168 1.286447 0.857855 -27.096906 0.000000 0.000000 0.000000 -27.962838 2.231599 -3.357426 -52.228064 -2.917212 -7.571162 -14.884489 -23.624692 4.397086 0.000000 0.000000 0.000000 17.136139 2.647621 0.772872 59.870960 4.278542 -6.619519 9.301415 28.764069 3.768006 0.000000 0.000000 0.000000 
0.001472 0.959856 0.002159 -1.924414 9.570537 0.840285 3.648507 0.144320 6.175793 -1.704514 0.254671 -8.242642 5.037642 13.483631 12.464542 0.000000 0.000000 0.000000 0.425847 -0.179570 1.576468 2.188080 -0.293912 -0.838085 -0.765942 -4.598545 9.604833 0.000000 0.000000 0.000000 0.520805 -0.191616 3.951525 4.672635 -0.333909 -24.787597 -3.437686 -5.493136 30.019897 1.450042 0.758681 -26.232996 0.000000 0.000000 0.000000 -27.837018 2.059965 -3.357584 -51.882665 -2.140374 -7.732758 -16.227967 -24.619233 4.875546 0.000000 0.000000 0.000000 17.065388 2.239297 0.583767 59.512773 4.268678 -6.489881 9.908158 29.306934 4.006323 0.000000 0.000000 0.000000 
0.002067 0.959796 0.003182 -1.883270 9.503625 0.699448 3.579140 0.165873 6.510105 -1.447536 0.252873 -8.443464 5.177209 13.733763 12.719133 0.000000 0.000000 0.000000 0.315547 -0.223796 1.986769 2.236608 -0.299919 -0.860810 -0.552682 -4.177802 9.642495 0.000000 0.000000 0.000000 0.369636 -0.189665 4.058530 4.775239 -0.354770 -24.908283 -3.499191 -5.625587 30.430321 1.502709 0.684551 -26.156788 0.000000 0.000000 0.000000 -27.974676 2.172513 -3.363258 -51.561686 -1.900456 -7.844768 -17.144889 -25.319690 5.255566 0.000000 0.000000 0.000000 16.833833 2.412595 0.651600 59.452563 4.134490 -6.597318 10.103848 29.953869 4.159088 0.000000 0.000000 0.000000 
0.002786 0.959791 0.004494 -1.810828 9.585472 0.695362 3.541479 0.171268 6.589328 -1.538141 0.254197 -8.607240 5.095773 13.686440 13.048066 0.000000 0.000000 0.000000 0.275549 -0.231392 2.061779 2.091829 -0.279407 -0.686380 -0.401648 -3.766696 9.286824 0.000000 0.000000 0.000000 0.339070 -0.195442 4.204155 4.824729 -0.380585 -24.584954 -3.740338 -5.786047 30.402984 1.716119 0.537016 -26.172440 0.000000 0.000000 0.000000 -27.980606 2.127178 -3.281899 -51.332659 -1.597480 -7.951551 -17.590674 -26.333545 5.602504 0.000000 0.000000 0.000000 16.692523 2.349309 0.596759 59.430402 4.125569 -6.600495 10.390533 30.572945 4.337842 0.000000 0.000000 0.000000 
0.003653 0.959462 0.005897 -1.878214 9.490991 0.600436 3.435689 0.172606 6.308661 -1.415498 0.247658 -7.767878 5.484012 14.066783 12.154080 0.000000 0.000000 0.000000 0.184887 -0.242975 2.185148 2.208241 -0.286062 -0.247714 -0.436076 -3.763952 8.934221 0.000000 0.000000 0.000000 0.446388 -0.218367 4.552641 4.669964 -0.357177 -24.345450 -3.764403 -5.699953 30.528321 1.807535 0.463353 -25.919701 0.000000 0.000000 0.000000 -27.813418 2.178136 -3.292027 -50.832850 -1.460464 -7.951832 -18.681667 -27.620786 6.177939 0.000000 0.000000 0.000000 16.496955 2.238091 0.551545 59.178802 4.281860 -6.523340 10.948210 30.902871 4.547012 0.000000 0.000000 0.000000 
0.004641 0.959217 0.007441 -1.913874 9.584109 0.561119 3.457909 0.151099 5.850736 -1.498301 0.241736 -6.909207 5.281616 13.602960 11.310748 0.000000 0.000000 0.000000 0.289410 -0.271112 2.404390 2.009205 -0.261184 -0.246169 -0.413834 -3.569507 8.392397 0.000000 0.000000 0.000000 0.446475 -0.236619 4.899861 4.583908 -0.343493 -24.157377 -3.655862 -5.309661 30.511856 1.901686 0.457373 -25.595135 0.000000 0.000000 0.000000 -27.307879 2.041406 -3.300113 -50.887337 -1.476275 -7.925067 -18.941690 -28.009682 6.310723 0.000000 0.000000 0.000000 16.645516 2.312846 0.689595 58.687338 4.147537 -6.557760 10.843116 31.165382 4.587486 0.000000 0.000000 0.000000 
0.005999 0.958774 0.009217 -1.897650 9.674882 0.737626 3.364438 0.133546 5.278616 -1.953934 0.244211 -5.481838 5.510770 13.655736 9.927870 0.000000 0.000000 0.000000 0.202518 -0.274722 2.458180 1.879039 -0.241527 -0.073247 -0.453181 -3.478789 7.749281 0.000000 0.000000 0.000000 0.522258 -0.249735 5.063166 4.277452 -0.253012 -24.366321 -3.516266 -5.018337 30.992870 1.723569 0.649198 -26.053934 0.000000 0.000000 0.000000 -26.801223 2.380355 -3.549341 -50.820165 -1.554318 -7.919394 -19.833350 -28.487988 6.660473 0.000000 0.000000 0.000000 16.600912 2.049081 0.650445 58.246901 4.516610 -6.412657 11.120707 31.121847 4.689792 0.000000 0.000000 0.000000 
0.008203 0.958400 0.011718 -1.879117 9.577712 0.791094 3.447224 0.098498 4.573880 -2.546365 0.263615 -4.416225 5.598250 13.585470 8.980972 0.000000 0.000000 0.000000 0.063082 -0.288429 2.617548 1.699186 -0.217897 -0.069467 -0.333930 -3.087435 7.211642 0.000000 0.000000 0.000000 0.340706 -0.261768 5.479998 4.063959 -0.201715 -24.391605 -3.211026 -4.549488 31.120579 1.764183 0.713896 -26.324161 0.000000 0.000000 0.000000 -26.393544 2.556236 -3.735691 -50.754333 -1.677816 -7.858539 -20.119440 -28.872234 6.812771 0.000000 0.000000 0.000000 16.676816 2.007871 0.723367 57.826746 4.429216 -6.449980 11.679043 31.159811 4.871703 0.000000 0.000000 0.000000 
0.011844 0.957825 0.015461 -1.882481 10.156758 0.908592 3.461468 0.059602 3.891688 -3.009232 0.276598 -2.899340 5.648902 13.449287 7.948867 0.000000 0.000000 0.000000 0.067661 -0.315305 2.842010 1.424060 -0.184441 -0.066407 -0.506374 -3.396177 7.153299 0.000000 0.000000 0.000000 0.034366 -0.258351 5.740484 4.148385 -0.206671 -24.579792 -2.977798 -4.984753 31.641364 1.318214 0.986349 -26.780003 0.000000 0.000000 0.000000 -26.361259 3.314392 -4.174269 -50.826483 -1.683984 -7.925181 -20.973749 -29.347297 7.197020 0.000000 0.000000 0.000000 16.493799 1.955655 0.705032 57.486618 4.403096 -6.494928 12.155227 31.818255 5.136712 0.000000 0.000000 0.000000 
